<?xml version="1.0" encoding="UTF-8"?>
<svg id="Layer_1" xmlns="http://www.w3.org/2000/svg" version="1.1" viewBox="0 0 327.12 72.11">
  <!-- Wordmark-only Brandex logo (no tagline) — dark mode. -->
  <defs>
    <style>
      .st0 { fill: #f5f5f5; }
      .st2 { fill: #fff; }
      .st3 { fill: #14b500; }
    </style>
  </defs>
  <circle class="st3" cx="36.06" cy="36.06" r="36.06"/>
  <g>
    <path class="st0" d="M125.35,37.66c0,8.82-7.09,15.91-15.91,15.91h-20V6.47h8.03v3.31h.47c.95-1.58,1.89-3.31,4.88-3.31h2.68c6.14,0,11.03,5.04,11.03,11.03s-.47,3.78-1.26,5.36c5.83,2.36,10.08,8.03,10.08,14.65v.16ZM97.47,13.4v8.35h8.03c2.36,0,3.94-1.89,3.94-4.1s-1.58-4.1-3.94-4.1h-8.03v-.16ZM118.1,37.66c0-5.04-3.62-8.98-8.66-8.98h-11.97v17.96h11.97c5.04,0,8.66-3.94,8.66-8.98Z"/>
    <path class="st0" d="M140.47,17.18h10.4v6.93h-15.59v29.45h-7.56V17.18h7.56v3.31h.47c.95-1.58,1.89-3.31,4.88-3.31h-.16Z"/>
    <path class="st0" d="M180.16,34.67v18.74h-7.56v-3.31h-.32c-3.15,2.99-7.56,3.94-11.34,3.94-6.3,0-12.6-3.78-12.6-13.23s6.46-13.23,12.92-13.23h4.57c3.15,0,5.04.95,6.46,3.31h0c0-4.41-2.05-6.93-8.66-6.93h-9.29v-6.93h9.29c9.92,0,16.38,4.88,16.38,17.48l.16.16ZM172.6,34.67h-11.03c-3.47,0-5.99,2.84-5.99,6.3s2.21,6.3,6.62,6.3c7.88,0,10.55-4.1,10.55-11.81v-.63l-.16-.16Z"/>
    <path class="st0" d="M217.02,34.67v18.74h-7.56v-18.74c0-5.83-1.42-10.71-8.98-10.71h-9.92v29.45h-7.56V17.18h7.56v3.31h.47c.95-1.58,1.89-3.31,4.88-3.31h4.57c9.92,0,16.38,4.88,16.38,17.48h.16Z"/>
    <path class="st0" d="M248.36,2.06h7.56v51.51h-7.56v-3.15c-2.68,2.52-6.3,3.78-10.08,3.78-8.98,0-17.96-5.36-17.96-18.74s8.98-18.11,17.96-18.11h4.88c2.99,0,3.94,1.58,4.88,3.31h.47V2.06h-.16ZM248.36,24.11h-10.08c-6.77,0-10.08,4.57-10.08,11.34s3.31,11.81,10.08,11.81,10.08-6.62,10.08-14.96v-8.19Z"/>
    <path class="st0" d="M288.37,38.13h-21.42c.79,5.36,4.1,9.14,9.92,9.14s8.03-2.52,10.87-6.62l6.62,3.47c-5.36,7.72-9.77,10.08-17.48,10.08s-17.96-5.36-17.96-18.74,8.98-18.74,17.96-18.74,15.44,3.94,17.48,13.7l-5.99,7.72h0ZM286.64,31.2c-1.1-4.57-4.41-7.72-9.61-7.72s-8.51,3.15-9.61,7.72h19.37-.16Z"/>
    <path class="st0" d="M313.73,34.04l13.39,20h-8.98l-8.51-12.6-8.03,12.6h-8.19l8.19-12.92c1.1-1.73,2.99-2.84,5.04-2.84h0v-1.1l-13.39-20h8.98l8.51,12.6,8.03-12.6h8.19l-8.35,12.92c-1.1,1.73-2.99,2.84-5.04,2.84v1.1h.16Z"/>
  </g>
  <g>
    <path class="st2" d="M16.16,16.9h0c4.19-3.18,10.23-2.01,12.92,2.52l6.62,11.13s-11.95.76-19.63-13.65h.09Z"/>
    <path class="st2" d="M55.32,16.9h0c-4.19-3.18-10.23-2.01-12.92,2.52l-6.62,11.13s11.95.76,19.63-13.65h-.09Z"/>
    <path class="st2" d="M28.49,62.65h0c-4.7-2.38-6.29-8.31-3.39-12.72l7.09-10.8s5.88,10.43-3.7,23.61h0v-.09Z"/>
    <path class="st2" d="M11.42,27.38v.04c-1.02,5.14,2.66,10.03,7.88,10.49l12.98,1.14s-4.55-11.09-20.77-11.66h-.09Z"/>
    <path class="st2" d="M42.9,62.65h0c4.7-2.38,6.29-8.31,3.39-12.72l-7.09-10.8s-5.88,10.43,3.7,23.61h0v-.09Z"/>
    <path class="st2" d="M59.97,27.38v.04c1.02,5.14-2.66,10.03-7.88,10.49l-12.98,1.14s4.55-11.09,20.77-11.66h.09Z"/>
  </g>
</svg>
