<?xml version="1.0" encoding="UTF-8"?>
<svg id="Layer_1" xmlns="http://www.w3.org/2000/svg" version="1.1" viewBox="0 0 327.12 72.11">
  <!-- Generator: Adobe Illustrator 30.5.1, SVG Export Plug-In . SVG Version: 2.1.4 Build 3)  -->
  <defs>
    <style>
      .st0 {
        fill: #31302d;
      }

      .st1 {
        isolation: isolate;
      }

      .st2 {
        fill: #fff;
      }

      .st3 {
        fill: #14b500;
      }
    </style>
  </defs>
  <circle class="st3" cx="36.06" cy="36.06" r="36.06"/>
  <g class="st1">
    <g class="st1">
      <g class="st1">
        <path class="st0" d="M125.35,37.66c0,8.82-7.09,15.91-15.91,15.91h-20V6.47h8.03v3.31h.47c.95-1.58,1.89-3.31,4.88-3.31h2.68c6.14,0,11.03,5.04,11.03,11.03s-.47,3.78-1.26,5.36c5.83,2.36,10.08,8.03,10.08,14.65v.16ZM97.47,13.4v8.35h8.03c2.36,0,3.94-1.89,3.94-4.1s-1.58-4.1-3.94-4.1h-8.03v-.16ZM118.1,37.66c0-5.04-3.62-8.98-8.66-8.98h-11.97v17.96h11.97c5.04,0,8.66-3.94,8.66-8.98Z"/>
        <path class="st0" d="M140.47,17.18h10.4v6.93h-15.59v29.45h-7.56V17.18h7.56v3.31h.47c.95-1.58,1.89-3.31,4.88-3.31h-.16Z"/>
        <path class="st0" d="M180.16,34.67v18.74h-7.56v-3.31h-.32c-3.15,2.99-7.56,3.94-11.34,3.94-6.3,0-12.6-3.78-12.6-13.23s6.46-13.23,12.92-13.23h4.57c3.15,0,5.04.95,6.46,3.31h0c0-4.41-2.05-6.93-8.66-6.93h-9.29v-6.93h9.29c9.92,0,16.38,4.88,16.38,17.48l.16.16ZM172.6,34.67h-11.03c-3.47,0-5.99,2.84-5.99,6.3s2.21,6.3,6.62,6.3c7.88,0,10.55-4.1,10.55-11.81v-.63l-.16-.16Z"/>
        <path class="st0" d="M217.02,34.67v18.74h-7.56v-18.74c0-5.83-1.42-10.71-8.98-10.71h-9.92v29.45h-7.56V17.18h7.56v3.31h.47c.95-1.58,1.89-3.31,4.88-3.31h4.57c9.92,0,16.38,4.88,16.38,17.48h.16Z"/>
        <path class="st0" d="M248.36,2.06h7.56v51.51h-7.56v-3.15c-2.68,2.52-6.3,3.78-10.08,3.78-8.98,0-17.96-5.36-17.96-18.74s8.98-18.11,17.96-18.11h4.88c2.99,0,3.94,1.58,4.88,3.31h.47V2.06h-.16ZM248.36,24.11h-10.08c-6.77,0-10.08,4.57-10.08,11.34s3.31,11.81,10.08,11.81,10.08-6.62,10.08-14.96v-8.19Z"/>
        <path class="st0" d="M288.37,38.13h-21.42c.79,5.36,4.1,9.14,9.92,9.14s8.03-2.52,10.87-6.62l6.62,3.47c-5.36,7.72-9.77,10.08-17.48,10.08s-17.96-5.36-17.96-18.74,8.98-18.74,17.96-18.74,15.44,3.94,17.48,13.7l-5.99,7.72h0ZM286.64,31.2c-1.1-4.57-4.41-7.72-9.61-7.72s-8.51,3.15-9.61,7.72h19.37-.16Z"/>
        <path class="st0" d="M313.73,34.04l13.39,20h-8.98l-8.51-12.6-8.03,12.6h-8.19l8.19-12.92c1.1-1.73,2.99-2.84,5.04-2.84h0v-1.1l-13.39-20h8.98l8.51,12.6,8.03-12.6h8.19l-8.35,12.92c-1.1,1.73-2.99,2.84-5.04,2.84v1.1h.16Z"/>
      </g>
    </g>
  </g>
  <g>
    <path class="st0" d="M92.11,58.47c2.52,0,4.56,2.03,4.56,4.56s-2.03,4.54-4.56,4.54h-2.86v-9.1h2.86ZM91.96,66.66c2.06,0,3.71-1.64,3.71-3.64s-1.65-3.66-3.71-3.66h-1.71v7.3h1.71Z"/>
    <path class="st0" d="M98.78,64.36c.03,1.46,1.21,2.54,2.84,2.54,1.08,0,2.06-.36,2.82-.96v.8c-.64.55-1.77.93-2.88.93-2.13,0-3.72-1.5-3.72-3.56.03-1.9,1.51-3.38,3.49-3.38s3.52,1.81,3.41,3.63h-5.96ZM103.83,63.62c-.08-1.16-1.19-2.1-2.5-2.1s-2.43.91-2.51,2.1h5.01Z"/>
    <path class="st0" d="M106.31,65.94c.67.61,1.72.93,2.59.93.76,0,1.76-.31,1.76-1.23,0-.54-.49-.79-1.15-.95-1.32-.37-3.25-.44-3.25-2.05,0-1.35,1.39-1.91,2.61-1.91.83,0,1.76.26,2.44.79v.94c-.65-.6-1.62-.91-2.46-.91-.76,0-1.68.33-1.68,1.19,0,.44.42.7.97.87,1.32.44,3.53.46,3.53,2.13,0,1.43-1.54,1.95-2.78,1.95-.87,0-1.88-.26-2.59-.8v-.94Z"/>
    <path class="st0" d="M113.72,58.3c.38,0,.65.27.65.66s-.27.65-.65.65-.65-.29-.65-.65.29-.66.65-.66ZM114.22,67.56v-6.71h-.97v6.71h.97Z"/>
    <path class="st0" d="M122.47,67.58c0,2.33-1.68,3.22-3.36,3.19-1.06.01-2.2-.36-2.99-1.04v-.93c.76.75,1.91,1.15,2.99,1.15,1.19.01,2.4-.61,2.4-2.36,0-.46-.01-.25-.01-.7-.56.52-1.35.79-2.07.79-1.92-.01-3.64-1.43-3.63-3.48-.01-2.05,1.71-3.46,3.63-3.48.74,0,1.5.3,2.07.9v-.78h.97v6.73ZM121.51,62.49c-.55-.63-1.32-.98-2.07-.97-1.43-.01-2.67,1.13-2.66,2.69-.01,1.58,1.23,2.69,2.66,2.69.75,0,1.53-.29,2.07-.83v-3.57Z"/>
    <path class="st0" d="M125.16,61.63c.57-.56,1.34-.9,2.09-.9,2.09,0,3.36,1.53,3.36,3.48v3.36h-.97v-3.36c0-1.51-.89-2.69-2.39-2.69-.79,0-1.53.33-2.09.97v5.07h-.97v-6.7h.97v.76Z"/>
    <path class="st0" d="M133.06,64.36c.03,1.46,1.21,2.54,2.84,2.54,1.08,0,2.06-.36,2.82-.96v.8c-.64.55-1.77.93-2.88.93-2.13,0-3.72-1.5-3.72-3.56.03-1.9,1.51-3.38,3.49-3.38s3.52,1.81,3.41,3.63h-5.96ZM138.11,63.62c-.08-1.16-1.19-2.1-2.5-2.1s-2.43.91-2.51,2.1h5.01Z"/>
    <path class="st0" d="M141.59,61.6c.57-.55,1.34-.87,2.09-.87.25,0,.49.01.76.05v.79c-.27-.04-.53-.05-.78-.05-.75,0-1.53.33-2.07.93v5.12h-.97v-6.71h.97v.75Z"/>
    <path class="st0" d="M155.25,70.07c0-1.36-.01-1.81-.01-3.18-.56.52-1.35.79-2.07.79-1.92-.01-3.64-1.43-3.63-3.48-.01-2.05,1.71-3.46,3.63-3.48.74,0,1.5.3,2.07.9v-.78h.97v9.22h-.96ZM155.24,62.49c-.55-.63-1.32-.98-2.07-.97-1.43-.01-2.67,1.13-2.66,2.69-.01,1.58,1.23,2.69,2.66,2.69.75,0,1.53-.29,2.07-.83v-3.57Z"/>
    <path class="st0" d="M163.06,66.8c-.57.56-1.24.9-2.01.9-2.05,0-3.12-1.49-3.12-3.38v-3.45h.97v3.45c0,1.45.68,2.61,2.15,2.61.79,0,1.46-.34,2.01-.98v-5.08h.98v6.7h-.98v-.76Z"/>
    <path class="st0" d="M170.37,66.87c-.55.52-1.23.82-2.01.82-1.35,0-2.96-.64-2.96-2.29,0-1.19.98-1.98,2.14-1.98h2.81c-.1-1.4-.89-1.91-2.4-1.91-.63.03-1.45.19-2,.59v-.85c.64-.37,1.49-.52,2.14-.52,1.87,0,3.25.72,3.25,2.92,0,1.31.01,2.61.01,3.92h-.97v-.7ZM167.89,64.18c-.86,0-1.56.45-1.56,1.17,0,1.15,1.17,1.54,2.13,1.54.74,0,1.41-.29,1.91-.83v-1.88h-2.48Z"/>
    <path class="st0" d="M173.29,67.56v-9.08h.97v9.08h-.97Z"/>
    <path class="st0" d="M176.63,58.3c.38,0,.65.27.65.66s-.27.65-.65.65-.66-.29-.66-.65.29-.66.66-.66ZM177.13,67.56v-6.71h-.97v6.71h.97Z"/>
    <path class="st0" d="M179.35,58.48h.97v2.37h1.61v.74h-1.61v4.09c0,.91.38,1.2.93,1.2.19,0,.4-.03.61-.05v.74c-.25.03-.48.04-.71.04-1.06,0-1.8-.5-1.8-1.92v-4.09h-.85v-.74h.85v-2.37Z"/>
    <path class="st0" d="M185.89,66.27l2.18-5.42h1.05l-2.58,6.36-.26.67c-.41,1.06-1.25,2.33-2.58,2.32-.15,0-.37-.01-.59-.05v-.86c.21.03.41.04.55.04.93,0,1.49-1.02,1.73-1.84l-2.73-6.63h1.04l2.18,5.42Z"/>
    <path class="st0" d="M189.45,67.55c-.3-.07-.5-.31-.5-.64,0-.37.29-.65.65-.65s.66.29.66.65c0,.16-.05.31-.75,1.6h-.33l.27-.96Z"/>
    <path class="st0" d="M201.17,65.26h-4.12l-.9,2.31h-1.08l3.53-9.1h1l3.55,9.1h-1.08l-.9-2.31ZM199.11,59.83l-1.79,4.61h3.57l-1.79-4.61Z"/>
    <path class="st0" d="M204.39,67.56v-9.1h1v9.1h-1Z"/>
    <path class="st0" d="M211.25,65.94c.67.61,1.72.93,2.59.93.76,0,1.76-.31,1.76-1.23,0-.54-.49-.79-1.15-.95-1.32-.37-3.25-.44-3.25-2.05,0-1.35,1.39-1.91,2.61-1.91.83,0,1.76.26,2.44.79v.94c-.66-.6-1.62-.91-2.46-.91-.76,0-1.68.33-1.68,1.19,0,.44.42.7.97.87,1.32.44,3.53.46,3.53,2.13,0,1.43-1.54,1.95-2.78,1.95-.87,0-1.88-.26-2.59-.8v-.94Z"/>
    <path class="st0" d="M219.03,60.85v.78c.57-.57,1.35-.9,2.07-.9,1.92.01,3.64,1.43,3.63,3.48.01,2.05-1.71,3.46-3.63,3.48-.74,0-1.51-.26-2.07-.79,0,1.35-.01,1.81-.01,3.18h-.96v-9.22h.97ZM219.03,66.06c.55.55,1.32.83,2.07.83,1.43,0,2.67-1.11,2.66-2.69.01-1.56-1.23-2.7-2.66-2.69-.75-.01-1.53.33-2.07.97v3.57Z"/>
    <path class="st0" d="M226.93,64.36c.03,1.46,1.21,2.54,2.84,2.54,1.08,0,2.06-.36,2.82-.96v.8c-.64.55-1.77.93-2.88.93-2.13,0-3.72-1.5-3.72-3.56.03-1.9,1.51-3.38,3.49-3.38s3.52,1.81,3.41,3.63h-5.96ZM231.97,63.62c-.08-1.16-1.19-2.1-2.5-2.1s-2.43.91-2.51,2.1h5.01Z"/>
    <path class="st0" d="M235.15,64.36c.03,1.46,1.21,2.54,2.84,2.54,1.08,0,2.06-.36,2.82-.96v.8c-.64.55-1.77.93-2.88.93-2.13,0-3.72-1.5-3.72-3.56.03-1.9,1.51-3.38,3.49-3.38s3.52,1.81,3.41,3.63h-5.96ZM240.2,63.62c-.08-1.16-1.19-2.1-2.5-2.1s-2.43.91-2.51,2.1h5.01Z"/>
    <path class="st0" d="M249.07,67.56h-.97v-.67c-.57.5-1.32.79-2.09.79-1.98,0-3.61-1.46-3.61-3.48s1.64-3.48,3.61-3.48c.78,0,1.5.31,2.09.9v-3.15h.97v9.08ZM248.1,62.49c-.56-.64-1.3-.97-2.09-.97-1.46,0-2.66,1.12-2.66,2.69s1.21,2.69,2.66,2.69c.79,0,1.53-.29,2.09-.83v-3.57Z"/>
  </g>
  <g>
    <path class="st2" d="M16.16,16.9h0c4.19-3.18,10.23-2.01,12.92,2.52l6.62,11.13s-11.95.76-19.63-13.65h.09Z"/>
    <path class="st2" d="M55.32,16.9h0c-4.19-3.18-10.23-2.01-12.92,2.52l-6.62,11.13s11.95.76,19.63-13.65h-.09Z"/>
    <path class="st2" d="M28.49,62.65h0c-4.7-2.38-6.29-8.31-3.39-12.72l7.09-10.8s5.88,10.43-3.7,23.61h0v-.09Z"/>
    <path class="st2" d="M11.42,27.38v.04c-1.02,5.14,2.66,10.03,7.88,10.49l12.98,1.14s-4.55-11.09-20.77-11.66h-.09Z"/>
    <path class="st2" d="M42.9,62.65h0c4.7-2.38,6.29-8.31,3.39-12.72l-7.09-10.8s-5.88,10.43,3.7,23.61h0v-.09Z"/>
    <path class="st2" d="M59.97,27.38v.04c1.02,5.14-2.66,10.03-7.88,10.49l-12.98,1.14s4.55-11.09,20.77-11.66h.09Z"/>
  </g>
</svg>