<?xml version="1.0" encoding="UTF-8"?>
<svg id="Layer_1" xmlns="http://www.w3.org/2000/svg" version="1.1" viewBox="0 0 960.76 176.99">
  <!-- Generator: Adobe Illustrator 30.2.1, SVG Export Plug-In . SVG Version: 2.1.1 Build 1)  -->
  <defs>
    <style>
      .st0 {
        fill: #00da20;
      }
    </style>
  </defs>
  <g>
    <path d="M325.08,115.11c0,28.39-23.11,51.5-51.28,51.5h-64.71V14.53h26.19v10.56h1.32c3.3-5.28,5.94-10.56,15.85-10.56h8.8c19.81,0,35.66,16.07,35.66,35.88,0,6.16-1.54,12.11-4.18,17.17,18.93,7.48,32.35,25.97,32.35,47.54ZM235.28,36.98v26.85h25.97c7.48,0,12.55-5.94,12.55-13.43s-5.06-13.43-12.55-13.43h-25.97ZM301.75,115.11c0-16.07-11.89-29.05-27.95-29.05h-38.52v58.11h38.52c16.07,0,27.95-12.99,27.95-29.05Z"/>
    <path d="M371.31,49.08h33.46v22.23h-50.62v95.3h-24.21V49.08h24.21v10.56h1.32c3.3-5.28,5.94-10.56,15.85-10.56Z"/>
    <path d="M496.77,105.87v60.75h-24.21v-10.78h-1.1c-10.34,9.68-24.21,12.77-36.76,12.77-20.47,0-40.72-12.11-40.72-42.7s21.13-42.7,41.82-42.7h14.53c10.12,0,16.29,2.86,20.91,10.56h.44c0-14.09-6.38-22.45-27.95-22.45h-30.15v-22.23h30.15c31.91,0,53.04,15.85,53.04,56.79ZM472.55,105.87v-.44h-35.88c-11.45,0-19.37,9.02-19.37,20.47s7.26,20.25,21.35,20.25c25.31,0,33.9-13.21,33.9-38.3v-1.98Z"/>
    <path d="M613.2,105.87v60.75h-24.21v-60.75c0-18.93-4.4-34.56-28.83-34.56h-31.92v95.3h-24.21V49.08h24.21v10.56h1.32c3.3-5.28,5.94-10.56,15.85-10.56h14.75c31.91,0,53.04,15.85,53.04,56.79Z"/>
    <path d="M711.59,0h24.21v166.62h-24.21v-10.12c-8.8,7.92-20.47,12.11-32.8,12.11-29.27,0-58.11-17.39-58.11-60.75s28.83-58.77,58.11-58.77h15.63c9.91,0,12.55,5.28,15.85,10.56h1.32V0ZM711.59,71.31h-32.8c-22.01,0-32.8,14.97-32.8,36.54s10.79,38.3,32.8,38.3,32.8-21.35,32.8-48.42v-26.41Z"/>
    <path d="M838.37,116.65h-69.11c2.64,17.17,13.21,29.49,32.13,29.49s25.75-8.14,35.22-21.57l21.35,11.23c-17.39,24.87-31.69,32.8-56.57,32.8-29.27,0-58.11-17.39-58.11-60.75s28.83-60.75,58.11-60.75c25.31,0,50.18,12.77,56.57,44.46l-19.59,25.09ZM832.65,94.42c-3.74-14.75-14.09-25.09-31.25-25.09s-27.51,10.34-31.25,25.09h62.51Z"/>
    <path d="M917.39,103.67l43.36,64.93h-29.27l-27.29-40.94-25.97,40.94h-26.41l26.63-41.82c3.74-5.72,9.91-9.24,16.51-9.24l.22.22v-3.74l-43.36-64.93h29.05l27.29,40.72,25.97-40.72h26.63l-26.85,41.82c-3.52,5.72-9.68,9.02-16.51,9.02v3.74Z"/>
  </g>
  <g>
    <path class="st0" d="M21.76,26.48L47.36,7.09l38.01,63.62s-38.79,2.33-63.62-44.22Z"/>
    <path class="st0" d="M148.99,26.48l-25.6-19.4-38.01,63.62s38.79,2.33,63.62-44.22Z"/>
    <path class="st0" d="M61.78,176.99l-28.62-14.58,40.66-61.96s19.01,33.89-12.04,76.53Z"/>
    <path class="st0" d="M6.29,62.5L0,93.99l73.83,6.46S59,64.53,6.29,62.5Z"/>
    <path class="st0" d="M108.57,176.99l28.62-14.58-40.66-61.96s-19.01,33.89,12.04,76.53Z"/>
    <path class="st0" d="M164.07,62.5l6.29,31.5-73.83,6.46s14.83-35.92,67.54-37.96Z"/>
  </g>
</svg>